# xmcd CD database file
#
# Track frame offsets:
#	150
#	11877
#	23459
#	35191
#	46091
#	57643
#	68012
#	79750
#	90998
#	100798
#
# Disc length: 1494 seconds
#
# Revision: 0
# Processed by: cddbd v1.5.2PL0 Copyright (c) Steve Scherf et al.
# Submitted via: CDex 1.51
#
DISCID=7405d40a
DTITLE=Patsy Cline - Country Queen
DYEAR=1900
DGENRE=Country
TTITLE0=Walkin' after Midnight
TTITLE1=Just out of Reach (w Willie Nelson)
TTITLE2=Lonely Street
TTITLE3=Stop Look and Listen
TTITLE4=Crazy Dreams
TTITLE5=Three Cigarettes in an Ashtray
TTITLE6=The Heart You Break May Be Your Own
TTITLE7=I Cried All the Way to the Altar
TTITLE8=I'm Blue Again
TTITLE9=Don't Leave Me Ever Again
EXTD=
EXTT0=
EXTT1=
EXTT2=
EXTT3=
EXTT4=
EXTT5=
EXTT6=
EXTT7=
EXTT8=
EXTT9=
PLAYORDER=
